<svg width="54" height="54" viewBox="0 0 54 54" fill="none" xmlns="http://www.w3.org/2000/svg">
<path d="M27 0C27.8951 0 28.7535 0.35558 29.3865 0.988515C30.0194 1.62145 30.375 2.47989 30.375 3.375V23.625H50.625C51.5201 23.625 52.3786 23.9806 53.0115 24.6135C53.6444 25.2465 54 26.1049 54 27C54 27.8951 53.6444 28.7535 53.0115 29.3865C52.3786 30.0194 51.5201 30.375 50.625 30.375H30.375V50.625C30.375 51.5201 30.0194 52.3786 29.3865 53.0115C28.7535 53.6444 27.8951 54 27 54C26.1049 54 25.2465 53.6444 24.6135 53.0115C23.9806 52.3786 23.625 51.5201 23.625 50.625V30.375H3.375C2.47989 30.375 1.62145 30.0194 0.988515 29.3865C0.35558 28.7535 0 27.8951 0 27C0 26.1049 0.35558 25.2465 0.988515 24.6135C1.62145 23.9806 2.47989 23.625 3.375 23.625H23.625V3.375C23.625 2.47989 23.9806 1.62145 24.6135 0.988515C25.2465 0.35558 26.1049 0 27 0Z" fill="white"/>
</svg>
