<svg width="78" height="78" viewBox="0 0 78 78" fill="none" xmlns="http://www.w3.org/2000/svg">
<path d="M19.9081 19.9081C20.541 19.2752 21.3995 18.9196 22.2946 18.9196C23.1897 18.9196 24.0481 19.2752 24.6811 19.9081L39 34.227L53.3189 19.9081C53.9518 19.2752 54.8103 18.9196 55.7054 18.9196C56.6005 18.9196 57.4589 19.2752 58.0919 19.9081C58.7248 20.5411 59.0804 21.3995 59.0804 22.2946C59.0804 23.1897 58.7248 24.0482 58.0919 24.6811L43.773 39L58.0919 53.3189C58.7248 53.9518 59.0804 54.8103 59.0804 55.7054C59.0804 56.6005 58.7248 57.4589 58.0919 58.0919C57.4589 58.7248 56.6005 59.0804 55.7054 59.0804C54.8103 59.0804 53.9518 58.7248 53.3189 58.0919L39 43.773L24.6811 58.0919C24.0481 58.7248 23.1897 59.0804 22.2946 59.0804C21.3995 59.0804 20.541 58.7248 19.9081 58.0919C19.2752 57.4589 18.9196 56.6005 18.9196 55.7054C18.9196 54.8103 19.2752 53.9518 19.9081 53.3189L34.227 39L19.9081 24.6811C19.2752 24.0482 18.9196 23.1897 18.9196 22.2946C18.9196 21.3995 19.2752 20.5411 19.9081 19.9081Z" fill="black"/>
</svg>
