<svg width="33" height="33" viewBox="0 0 33 33" fill="none" xmlns="http://www.w3.org/2000/svg">
<path d="M23.0881 0.508529C23.4138 0.182918 23.8555 0 24.3161 0C24.7766 0 25.2183 0.182918 25.544 0.508529L32.4915 7.45598C32.8171 7.78169 33 8.22338 33 8.68394C33 9.14449 32.8171 9.58619 32.4915 9.9119L9.91227 32.4911C9.58662 32.8168 9.14491 32.9999 8.68431 33H1.73686C1.27622 33 0.83444 32.817 0.508715 32.4913C0.18299 32.1656 0 31.7238 0 31.2631V24.3157C9.83713e-05 23.8551 0.183153 23.4134 0.5089 23.0877L17.8775 5.71911L23.0881 0.508529ZM19.1055 9.403L3.47372 25.0348V29.5263H7.96525L23.597 13.8945L19.1055 9.403ZM26.0529 11.4386L28.8076 8.68394L24.3161 4.19241L21.5614 6.94708L26.0529 11.4386Z" fill="white"/>
</svg>
