<svg width="36" height="35" viewBox="0 0 36 35" fill="none" xmlns="http://www.w3.org/2000/svg">
<path d="M26.5863 0.569314C26.9614 0.204782 27.47 0 28.0003 0C28.5307 0 29.0393 0.204782 29.4144 0.569314L35.4144 6.40272C35.7894 6.76736 36 7.26185 36 7.77745C36 8.29306 35.7894 8.78755 35.4144 9.15219L17.4142 26.6524C17.0392 27.0171 16.5306 27.222 16.0002 27.2221H10.0001C9.46968 27.2221 8.96097 27.0173 8.58589 26.6526C8.21081 26.288 8.0001 25.7934 8.0001 25.2777V19.4443C8.00021 18.9286 8.211 18.4341 8.5861 18.0695L26.5863 0.569314ZM12.0001 20.2493V23.3332H15.1722L31.1724 7.77745L28.0003 4.69353L12.0001 20.2493ZM0 7.77745C0 6.74605 0.421432 5.75688 1.17159 5.02756C1.92174 4.29825 2.93917 3.88852 4.00005 3.88852H14.0002C14.5306 3.88852 15.0393 4.09338 15.4144 4.45804C15.7895 4.8227 16.0002 5.31728 16.0002 5.83299C16.0002 6.34869 15.7895 6.84327 15.4144 7.20793C15.0393 7.57259 14.5306 7.77745 14.0002 7.77745H4.00005V31.1111H28.0003V21.3887C28.0003 20.873 28.211 20.3784 28.5861 20.0138C28.9612 19.6491 29.4699 19.4443 30.0004 19.4443C30.5308 19.4443 31.0395 19.6491 31.4146 20.0138C31.7897 20.3784 32.0004 20.873 32.0004 21.3887V31.1111C32.0004 32.1425 31.5789 33.1316 30.8288 33.861C30.0786 34.5903 29.0612 35 28.0003 35H4.00005C2.93917 35 1.92174 34.5903 1.17159 33.861C0.421432 33.1316 0 32.1425 0 31.1111V7.77745Z" fill="white"/>
</svg>
